<?xml version="1.0" encoding="UTF-8" standalone="no"?><svg xmlns="http://www.w3.org/2000/svg" xmlns:xlink="http://www.w3.org/1999/xlink" contentStyleType="text/css" height="399px" preserveAspectRatio="none" style="width:530px;height:399px;background:#FFFFFF;" version="1.1" viewBox="0 0 530 399" width="530px" zoomAndPan="magnify"><defs/><g><!--MD5=[1f2cfc53d9d308f53762fd0fcbaa4873]
cluster Controller--><g id="cluster_Controller"><path d="M8.5,6 L90.5,6 A3.75,3.75 0 0 1 93,8.5 L100,28.2969 L520.5,28.2969 A2.5,2.5 0 0 1 523,30.7969 L523,389.5 A2.5,2.5 0 0 1 520.5,392 L8.5,392 A2.5,2.5 0 0 1 6,389.5 L6,8.5 A2.5,2.5 0 0 1 8.5,6 " fill="#98F5E1" style="stroke:#000000;stroke-width:1.5;"/><line style="stroke:#000000;stroke-width:1.5;" x1="6" x2="100" y1="28.2969" y2="28.2969"/><text fill="#000000" font-family="sans-serif" font-size="14" font-weight="bold" lengthAdjust="spacing" textLength="81" x="10" y="20.9951">Controller</text></g><!--MD5=[82d9c97a467af7c0b2c072e754b85475]
class GameController--><g id="elem_GameController"><rect codeLine="30" fill="#F1F1F1" height="113.1875" id="GameController" rx="2.5" ry="2.5" style="stroke:#181818;stroke-width:0.5;" width="206" x="299" y="41"/><ellipse cx="340.55" cy="57" fill="#ADD1B2" rx="11" ry="11" style="stroke:#181818;stroke-width:1.0;"/><path d="M342.8938,52.6719 C341.9563,52.2344 341.3625,52.0938 340.4875,52.0938 C337.8625,52.0938 335.8625,54.1719 335.8625,56.8906 L335.8625,58.0156 C335.8625,60.5938 337.9719,62.4844 340.8625,62.4844 C342.0813,62.4844 343.2375,62.1875 343.9875,61.6406 C344.5656,61.2344 344.8938,60.7813 344.8938,60.3906 C344.8938,59.9375 344.5031,59.5469 344.0344,59.5469 C343.8156,59.5469 343.6125,59.625 343.425,59.8125 C342.9719,60.2969 342.9719,60.2969 342.7844,60.3906 C342.3625,60.6563 341.675,60.7813 340.9094,60.7813 C338.8625,60.7813 337.5656,59.6875 337.5656,57.9844 L337.5656,56.8906 C337.5656,55.1094 338.8156,53.7969 340.55,53.7969 C341.1281,53.7969 341.7375,53.9531 342.2063,54.2031 C342.6906,54.4844 342.8625,54.7031 342.9563,55.1094 C343.0188,55.5156 343.05,55.6406 343.1906,55.7656 C343.3313,55.9063 343.5656,56.0156 343.7844,56.0156 C344.05,56.0156 344.3156,55.875 344.4875,55.6563 C344.5969,55.5 344.6281,55.3125 344.6281,54.8906 L344.6281,53.4688 C344.6281,53.0313 344.6125,52.9063 344.5188,52.75 C344.3625,52.4844 344.0813,52.3438 343.7844,52.3438 C343.4875,52.3438 343.2844,52.4375 343.0656,52.75 L342.8938,52.6719 Z " fill="#000000"/><text fill="#000000" font-family="sans-serif" font-size="14" lengthAdjust="spacing" textLength="115" x="360.45" y="61.8467">GameController</text><line style="stroke:#181818;stroke-width:0.5;" x1="300" x2="504" y1="73" y2="73"/><rect fill="none" height="6" style="stroke:#C82930;stroke-width:1.0;" width="6" x="307" y="81"/><text fill="#000000" font-family="sans-serif" font-size="14" lengthAdjust="spacing" textLength="180" x="319" y="89.9951">GameController instance</text><ellipse cx="310" cy="100.2969" fill="none" rx="3" ry="3" style="stroke:#038048;stroke-width:1.0;"/><text fill="#000000" font-family="sans-serif" font-size="14" lengthAdjust="spacing" textLength="130" x="319" y="106.292">GameClient client</text><line style="stroke:#181818;stroke-width:0.5;" x1="300" x2="504" y1="113.5938" y2="113.5938"/><ellipse cx="310" cy="124.5938" fill="#84BE84" rx="3" ry="3" style="stroke:#038048;stroke-width:1.0;"/><text fill="#000000" font-family="sans-serif" font-size="14" lengthAdjust="spacing" textLength="159" x="319" y="130.5889">void GameController()</text><ellipse cx="310" cy="140.8906" fill="#84BE84" rx="3" ry="3" style="stroke:#038048;stroke-width:1.0;"/><text fill="#000000" font-family="sans-serif" font-size="14" lengthAdjust="spacing" textLength="179" x="319" y="146.8857">void assignBoards(Game)</text></g><!--MD5=[e8f2e16b156a0a09f4769c4c5f038e22]
class ViewManager--><g id="elem_ViewManager"><rect codeLine="9" fill="#F1F1F1" height="162.0781" id="ViewManager" rx="2.5" ry="2.5" style="stroke:#181818;stroke-width:0.5;" width="274" x="22" y="214"/><ellipse cx="107.25" cy="230" fill="#ADD1B2" rx="11" ry="11" style="stroke:#181818;stroke-width:1.0;"/><path d="M109.5938,225.6719 C108.6563,225.2344 108.0625,225.0938 107.1875,225.0938 C104.5625,225.0938 102.5625,227.1719 102.5625,229.8906 L102.5625,231.0156 C102.5625,233.5938 104.6719,235.4844 107.5625,235.4844 C108.7813,235.4844 109.9375,235.1875 110.6875,234.6406 C111.2656,234.2344 111.5938,233.7813 111.5938,233.3906 C111.5938,232.9375 111.2031,232.5469 110.7344,232.5469 C110.5156,232.5469 110.3125,232.625 110.125,232.8125 C109.6719,233.2969 109.6719,233.2969 109.4844,233.3906 C109.0625,233.6563 108.375,233.7813 107.6094,233.7813 C105.5625,233.7813 104.2656,232.6875 104.2656,230.9844 L104.2656,229.8906 C104.2656,228.1094 105.5156,226.7969 107.25,226.7969 C107.8281,226.7969 108.4375,226.9531 108.9063,227.2031 C109.3906,227.4844 109.5625,227.7031 109.6563,228.1094 C109.7188,228.5156 109.75,228.6406 109.8906,228.7656 C110.0313,228.9063 110.2656,229.0156 110.4844,229.0156 C110.75,229.0156 111.0156,228.875 111.1875,228.6563 C111.2969,228.5 111.3281,228.3125 111.3281,227.8906 L111.3281,226.4688 C111.3281,226.0313 111.3125,225.9063 111.2188,225.75 C111.0625,225.4844 110.7813,225.3438 110.4844,225.3438 C110.1875,225.3438 109.9844,225.4375 109.7656,225.75 L109.5938,225.6719 Z " fill="#000000"/><text fill="#000000" font-family="sans-serif" font-size="14" lengthAdjust="spacing" textLength="95" x="127.75" y="234.8467">ViewManager</text><line style="stroke:#181818;stroke-width:0.5;" x1="23" x2="295" y1="246" y2="246"/><rect fill="none" height="6" style="stroke:#C82930;stroke-width:1.0;" width="6" x="30" y="254"/><text fill="#000000" font-family="sans-serif" font-size="14" lengthAdjust="spacing" textLength="235" x="42" y="262.9951">stack&lt;AbstractView&gt; viewStack</text><rect fill="none" height="6" style="stroke:#C82930;stroke-width:1.0;" width="6" x="30" y="270.2969"/><text fill="#000000" font-family="sans-serif" font-size="14" lengthAdjust="spacing" textLength="160" x="42" y="279.292">ViewManager instance</text><line style="stroke:#181818;stroke-width:0.5;" x1="23" x2="295" y1="286.5938" y2="286.5938"/><ellipse cx="33" cy="297.5938" fill="#84BE84" rx="3" ry="3" style="stroke:#038048;stroke-width:1.0;"/><text fill="#000000" font-family="sans-serif" font-size="14" lengthAdjust="spacing" textLength="248" x="42" y="303.5889">void ViewController(AbstractView)</text><ellipse cx="33" cy="313.8906" fill="#84BE84" rx="3" ry="3" style="stroke:#038048;stroke-width:1.0;"/><text fill="#000000" font-family="sans-serif" font-size="14" lengthAdjust="spacing" textLength="73" x="42" y="319.8857">void pop()</text><ellipse cx="33" cy="330.1875" fill="#84BE84" rx="3" ry="3" style="stroke:#038048;stroke-width:1.0;"/><text fill="#000000" font-family="sans-serif" font-size="14" lengthAdjust="spacing" textLength="175" x="42" y="336.1826">void push(AbstractView)</text><ellipse cx="33" cy="346.4844" fill="#84BE84" rx="3" ry="3" style="stroke:#038048;stroke-width:1.0;"/><text fill="#000000" font-family="sans-serif" font-size="14" lengthAdjust="spacing" textLength="146" x="42" y="352.4795">void render(float dt)</text><ellipse cx="33" cy="362.7813" fill="#84BE84" rx="3" ry="3" style="stroke:#038048;stroke-width:1.0;"/><text fill="#000000" font-family="sans-serif" font-size="14" lengthAdjust="spacing" textLength="95" x="42" y="368.7764">void update()</text></g><!--MD5=[cb62662ac00a6bbafa71e2e8e2c6aa47]
class MenuController--><g id="elem_MenuController"><rect codeLine="38" fill="#F1F1F1" height="113.1875" id="MenuController" rx="2.5" ry="2.5" style="stroke:#181818;stroke-width:0.5;" width="202" x="59" y="41"/><ellipse cx="100.55" cy="57" fill="#ADD1B2" rx="11" ry="11" style="stroke:#181818;stroke-width:1.0;"/><path d="M102.8938,52.6719 C101.9563,52.2344 101.3625,52.0938 100.4875,52.0938 C97.8625,52.0938 95.8625,54.1719 95.8625,56.8906 L95.8625,58.0156 C95.8625,60.5938 97.9719,62.4844 100.8625,62.4844 C102.0813,62.4844 103.2375,62.1875 103.9875,61.6406 C104.5656,61.2344 104.8938,60.7813 104.8938,60.3906 C104.8938,59.9375 104.5031,59.5469 104.0344,59.5469 C103.8156,59.5469 103.6125,59.625 103.425,59.8125 C102.9719,60.2969 102.9719,60.2969 102.7844,60.3906 C102.3625,60.6563 101.675,60.7813 100.9094,60.7813 C98.8625,60.7813 97.5656,59.6875 97.5656,57.9844 L97.5656,56.8906 C97.5656,55.1094 98.8156,53.7969 100.55,53.7969 C101.1281,53.7969 101.7375,53.9531 102.2063,54.2031 C102.6906,54.4844 102.8625,54.7031 102.9563,55.1094 C103.0188,55.5156 103.05,55.6406 103.1906,55.7656 C103.3313,55.9063 103.5656,56.0156 103.7844,56.0156 C104.05,56.0156 104.3156,55.875 104.4875,55.6563 C104.5969,55.5 104.6281,55.3125 104.6281,54.8906 L104.6281,53.4688 C104.6281,53.0313 104.6125,52.9063 104.5188,52.75 C104.3625,52.4844 104.0813,52.3438 103.7844,52.3438 C103.4875,52.3438 103.2844,52.4375 103.0656,52.75 L102.8938,52.6719 Z " fill="#000000"/><text fill="#000000" font-family="sans-serif" font-size="14" lengthAdjust="spacing" textLength="111" x="120.45" y="61.8467">MenuController</text><line style="stroke:#181818;stroke-width:0.5;" x1="60" x2="260" y1="73" y2="73"/><rect fill="none" height="6" style="stroke:#C82930;stroke-width:1.0;" width="6" x="67" y="81"/><text fill="#000000" font-family="sans-serif" font-size="14" lengthAdjust="spacing" textLength="176" x="79" y="89.9951">MenuController instance</text><ellipse cx="70" cy="100.2969" fill="none" rx="3" ry="3" style="stroke:#038048;stroke-width:1.0;"/><text fill="#000000" font-family="sans-serif" font-size="14" lengthAdjust="spacing" textLength="130" x="79" y="106.292">GameClient client</text><line style="stroke:#181818;stroke-width:0.5;" x1="60" x2="260" y1="113.5938" y2="113.5938"/><ellipse cx="70" cy="124.5938" fill="#84BE84" rx="3" ry="3" style="stroke:#038048;stroke-width:1.0;"/><text fill="#000000" font-family="sans-serif" font-size="14" lengthAdjust="spacing" textLength="112" x="79" y="130.5889">void joinGame()</text><ellipse cx="70" cy="140.8906" fill="#84BE84" rx="3" ry="3" style="stroke:#038048;stroke-width:1.0;"/><text fill="#000000" font-family="sans-serif" font-size="14" lengthAdjust="spacing" textLength="133" x="79" y="146.8857">void createGame()</text></g><!--MD5=[0a7dac4942faf7b47aa23cf6f8b442ac]
class GameClient--><g id="elem_GameClient"><rect codeLine="19" fill="#F1F1F1" height="162.0781" id="GameClient" rx="2.5" ry="2.5" style="stroke:#181818;stroke-width:0.5;" width="176" x="331" y="214"/><ellipse cx="372.55" cy="230" fill="#ADD1B2" rx="11" ry="11" style="stroke:#181818;stroke-width:1.0;"/><path d="M374.8938,225.6719 C373.9563,225.2344 373.3625,225.0938 372.4875,225.0938 C369.8625,225.0938 367.8625,227.1719 367.8625,229.8906 L367.8625,231.0156 C367.8625,233.5938 369.9719,235.4844 372.8625,235.4844 C374.0813,235.4844 375.2375,235.1875 375.9875,234.6406 C376.5656,234.2344 376.8938,233.7813 376.8938,233.3906 C376.8938,232.9375 376.5031,232.5469 376.0344,232.5469 C375.8156,232.5469 375.6125,232.625 375.425,232.8125 C374.9719,233.2969 374.9719,233.2969 374.7844,233.3906 C374.3625,233.6563 373.675,233.7813 372.9094,233.7813 C370.8625,233.7813 369.5656,232.6875 369.5656,230.9844 L369.5656,229.8906 C369.5656,228.1094 370.8156,226.7969 372.55,226.7969 C373.1281,226.7969 373.7375,226.9531 374.2063,227.2031 C374.6906,227.4844 374.8625,227.7031 374.9563,228.1094 C375.0188,228.5156 375.05,228.6406 375.1906,228.7656 C375.3313,228.9063 375.5656,229.0156 375.7844,229.0156 C376.05,229.0156 376.3156,228.875 376.4875,228.6563 C376.5969,228.5 376.6281,228.3125 376.6281,227.8906 L376.6281,226.4688 C376.6281,226.0313 376.6125,225.9063 376.5188,225.75 C376.3625,225.4844 376.0813,225.3438 375.7844,225.3438 C375.4875,225.3438 375.2844,225.4375 375.0656,225.75 L374.8938,225.6719 Z " fill="#000000"/><text fill="#000000" font-family="sans-serif" font-size="14" lengthAdjust="spacing" textLength="85" x="392.45" y="234.8467">GameClient</text><line style="stroke:#181818;stroke-width:0.5;" x1="332" x2="506" y1="246" y2="246"/><rect fill="none" height="6" style="stroke:#C82930;stroke-width:1.0;" width="6" x="339" y="254"/><text fill="#000000" font-family="sans-serif" font-size="14" lengthAdjust="spacing" textLength="150" x="351" y="262.9951">GameClient instance</text><ellipse cx="342" cy="273.2969" fill="none" rx="3" ry="3" style="stroke:#038048;stroke-width:1.0;"/><text fill="#000000" font-family="sans-serif" font-size="14" lengthAdjust="spacing" textLength="88" x="351" y="279.292">Client client</text><line style="stroke:#181818;stroke-width:0.5;" x1="332" x2="506" y1="286.5938" y2="286.5938"/><rect fill="#F24D5C" height="6" style="stroke:#C82930;stroke-width:1.0;" width="6" x="339" y="294.5938"/><text fill="#000000" font-family="sans-serif" font-size="14" lengthAdjust="spacing" textLength="129" x="351" y="303.5889">void GameClient()</text><ellipse cx="342" cy="313.8906" fill="#84BE84" rx="3" ry="3" style="stroke:#038048;stroke-width:1.0;"/><text fill="#000000" font-family="sans-serif" font-size="14" lengthAdjust="spacing" textLength="119" x="351" y="319.8857">void sendScore()</text><ellipse cx="342" cy="330.1875" fill="#84BE84" rx="3" ry="3" style="stroke:#038048;stroke-width:1.0;"/><text fill="#000000" font-family="sans-serif" font-size="14" lengthAdjust="spacing" textLength="118" x="351" y="336.1826">void gameOver()</text><ellipse cx="342" cy="346.4844" fill="#84BE84" rx="3" ry="3" style="stroke:#038048;stroke-width:1.0;"/><text fill="#000000" font-family="sans-serif" font-size="14" lengthAdjust="spacing" textLength="124" x="351" y="352.4795">void leaveGame()</text><ellipse cx="342" cy="362.7813" fill="#84BE84" rx="3" ry="3" style="stroke:#038048;stroke-width:1.0;"/><text fill="#000000" font-family="sans-serif" font-size="14" lengthAdjust="spacing" textLength="85" x="351" y="368.7764">void setup()</text></g><!--MD5=[ea02178e63bd52ed09d276a1baf50b38]
reverse link GameController to ViewManager--><g id="link_GameController_ViewManager"><path codeLine="3" d="M328.616,157.539 C306.632,175.226 282.141,194.93 258.761,213.74 " fill="none" id="GameController-backto-ViewManager" style="stroke:#181818;stroke-width:1.0;"/><polygon fill="#181818" points="332.691,154.261,323.1713,156.7861,328.7953,157.3953,328.1862,163.0192,332.691,154.261" style="stroke:#181818;stroke-width:1.0;"/><text fill="#000000" font-family="sans-serif" font-size="13" lengthAdjust="spacing" textLength="8" x="315.7565" y="174.1564">1</text><text fill="#000000" font-family="sans-serif" font-size="13" lengthAdjust="spacing" textLength="8" x="259.2897" y="202.9041">1</text></g><!--MD5=[c3a06ee1704b1b1a9da6bef1c278a473]
link MenuController to GameClient--><g id="link_MenuController_GameClient"><path codeLine="4" d="M233.872,154.261 C262.777,176.079 296.247,201.343 326.714,224.34 " fill="none" id="MenuController-to-GameClient" style="stroke:#181818;stroke-width:1.0;"/><polygon fill="#181818" points="330.799,227.424,326.0256,218.8092,326.8083,224.4117,321.2058,225.1944,330.799,227.424" style="stroke:#181818;stroke-width:1.0;"/><text fill="#000000" font-family="sans-serif" font-size="13" lengthAdjust="spacing" textLength="8" x="234.3877" y="174.1564">1</text><text fill="#000000" font-family="sans-serif" font-size="13" lengthAdjust="spacing" textLength="8" x="314.8755" y="218.0414">1</text></g><!--MD5=[2b33119a0f525cb57619e34d76de5a4b]
link GameController to GameClient--><g id="link_GameController_GameClient"><path codeLine="5" d="M406.849,154.261 C408.32,171.179 409.971,190.17 411.571,208.568 " fill="none" id="GameController-to-GameClient" style="stroke:#181818;stroke-width:1.0;"/><polygon fill="#181818" points="412.021,213.74,415.2269,204.4275,411.5882,208.7588,407.2569,205.1201,412.021,213.74" style="stroke:#181818;stroke-width:1.0;"/><text fill="#000000" font-family="sans-serif" font-size="13" lengthAdjust="spacing" textLength="8" x="398.9525" y="174.1564">1</text><text fill="#000000" font-family="sans-serif" font-size="13" lengthAdjust="spacing" textLength="8" x="403.0432" y="202.9041">1</text></g><!--MD5=[82dd705b6a3842094dee8c382a0a07d9]
reverse link MenuController to ViewManager--><g id="link_MenuController_ViewManager"><path codeLine="6" d="M159.688,159.529 C159.6,176.696 159.503,195.632 159.411,213.74 " fill="none" id="MenuController-backto-ViewManager" style="stroke:#181818;stroke-width:1.0;"/><polygon fill="#181818" points="159.715,154.261,155.6688,163.2403,159.6893,159.2609,163.6687,163.2815,159.715,154.261" style="stroke:#181818;stroke-width:1.0;"/><text fill="#000000" font-family="sans-serif" font-size="13" lengthAdjust="spacing" textLength="8" x="151.1928" y="174.1564">1</text><text fill="#000000" font-family="sans-serif" font-size="13" lengthAdjust="spacing" textLength="8" x="151.0914" y="202.9041">1</text></g><!--MD5=[d890640e3ffa8fb68d5b583c7f527f76]
@startuml
package "Controller" #98f5e1 {

  GameController "1" <- -  "1" ViewManager
  MenuController "1" - -> "1" GameClient
  GameController "1" - -> "1" GameClient
  MenuController "1" <- -  "1" ViewManager
  
 
  class ViewManager {
  - stack<AbstractView> viewStack
  - ViewManager instance 
  +void ViewController(AbstractView)
  +void pop()
  +void push(AbstractView)
  +void render(float dt)
  +void update()
  }
  
  class GameClient{
  - GameClient instance
  + Client client
  - void GameClient()
  + void sendScore()
  + void gameOver()
  + void leaveGame()
  + void setup()
  }
  
  
  class GameController{
  - GameController instance
  + GameClient client
  + void GameController()
  + void assignBoards(Game)

  }
 
  class MenuController{
  - MenuController instance
  + GameClient client
  + void joinGame()
  + void createGame()
  }
  
  
}
@enduml

PlantUML version 1.2022.3beta2(Unknown compile time)
(GPL source distribution)
Java Runtime: Java(TM) SE Runtime Environment
JVM: Java HotSpot(TM) 64-Bit Server VM
Default Encoding: UTF-8
Language: en
Country: US
--></g></svg>