<?xml version="1.0" encoding="UTF-8" standalone="no"?><svg xmlns="http://www.w3.org/2000/svg" xmlns:xlink="http://www.w3.org/1999/xlink" contentStyleType="text/css" height="589px" preserveAspectRatio="none" style="width:886px;height:589px;background:#FFFFFF;" version="1.1" viewBox="0 0 886 589" width="886px" zoomAndPan="magnify"><defs/><g><!--MD5=[15636c1ca4a123c16a2a1a8e90aca7a9]
cluster Model--><g id="cluster_Model"><path d="M8.5,6 L57.5,6 A3.75,3.75 0 0 1 60,8.5 L67,28.2969 L876.5,28.2969 A2.5,2.5 0 0 1 879,30.7969 L879,579.5 A2.5,2.5 0 0 1 876.5,582 L8.5,582 A2.5,2.5 0 0 1 6,579.5 L6,8.5 A2.5,2.5 0 0 1 8.5,6 " fill="#CFBAF0" style="stroke:#000000;stroke-width:1.5;"/><line style="stroke:#000000;stroke-width:1.5;" x1="6" x2="67" y1="28.2969" y2="28.2969"/><text fill="#000000" font-family="sans-serif" font-size="14" font-weight="bold" lengthAdjust="spacing" textLength="48" x="10" y="20.9951">Model</text></g><!--MD5=[2cb47ba637a0d19583e6199456f6ad0b]
class Player--><g id="elem_Player"><rect codeLine="3" fill="#F1F1F1" height="129.4844" id="Player" rx="2.5" ry="2.5" style="stroke:#181818;stroke-width:0.5;" width="173" x="547.5" y="437"/><ellipse cx="607.75" cy="453" fill="#ADD1B2" rx="11" ry="11" style="stroke:#181818;stroke-width:1.0;"/><path d="M610.0938,448.6719 C609.1563,448.2344 608.5625,448.0938 607.6875,448.0938 C605.0625,448.0938 603.0625,450.1719 603.0625,452.8906 L603.0625,454.0156 C603.0625,456.5938 605.1719,458.4844 608.0625,458.4844 C609.2813,458.4844 610.4375,458.1875 611.1875,457.6406 C611.7656,457.2344 612.0938,456.7813 612.0938,456.3906 C612.0938,455.9375 611.7031,455.5469 611.2344,455.5469 C611.0156,455.5469 610.8125,455.625 610.625,455.8125 C610.1719,456.2969 610.1719,456.2969 609.9844,456.3906 C609.5625,456.6563 608.875,456.7813 608.1094,456.7813 C606.0625,456.7813 604.7656,455.6875 604.7656,453.9844 L604.7656,452.8906 C604.7656,451.1094 606.0156,449.7969 607.75,449.7969 C608.3281,449.7969 608.9375,449.9531 609.4063,450.2031 C609.8906,450.4844 610.0625,450.7031 610.1563,451.1094 C610.2188,451.5156 610.25,451.6406 610.3906,451.7656 C610.5313,451.9063 610.7656,452.0156 610.9844,452.0156 C611.25,452.0156 611.5156,451.875 611.6875,451.6563 C611.7969,451.5 611.8281,451.3125 611.8281,450.8906 L611.8281,449.4688 C611.8281,449.0313 611.8125,448.9063 611.7188,448.75 C611.5625,448.4844 611.2813,448.3438 610.9844,448.3438 C610.6875,448.3438 610.4844,448.4375 610.2656,448.75 L610.0938,448.6719 Z " fill="#000000"/><text fill="#000000" font-family="sans-serif" font-size="14" lengthAdjust="spacing" textLength="44" x="628.25" y="457.8467">Player</text><line style="stroke:#181818;stroke-width:0.5;" x1="548.5" x2="719.5" y1="469" y2="469"/><rect fill="none" height="6" style="stroke:#C82930;stroke-width:1.0;" width="6" x="555.5" y="477"/><text fill="#000000" font-family="sans-serif" font-size="14" lengthAdjust="spacing" textLength="84" x="567.5" y="485.9951">int playerID</text><rect fill="none" height="6" style="stroke:#C82930;stroke-width:1.0;" width="6" x="555.5" y="493.2969"/><text fill="#000000" font-family="sans-serif" font-size="14" lengthAdjust="spacing" textLength="70" x="567.5" y="502.292">int points</text><rect fill="none" height="6" style="stroke:#C82930;stroke-width:1.0;" width="6" x="555.5" y="509.5938"/><text fill="#000000" font-family="sans-serif" font-size="14" lengthAdjust="spacing" textLength="118" x="567.5" y="518.5889">String username</text><ellipse cx="558.5" cy="528.8906" fill="none" rx="3" ry="3" style="stroke:#038048;stroke-width:1.0;"/><text fill="#000000" font-family="sans-serif" font-size="14" lengthAdjust="spacing" textLength="86" x="567.5" y="534.8857">Game game</text><line style="stroke:#181818;stroke-width:0.5;" x1="548.5" x2="719.5" y1="542.1875" y2="542.1875"/><ellipse cx="558.5" cy="553.1875" fill="#84BE84" rx="3" ry="3" style="stroke:#038048;stroke-width:1.0;"/><text fill="#000000" font-family="sans-serif" font-size="14" lengthAdjust="spacing" textLength="147" x="567.5" y="559.1826">setFlowerBed(int ID)</text></g><!--MD5=[b6dcce5e5ef3c84b0b048d11301373dd]
class Game--><g id="elem_Game"><rect codeLine="10" fill="#F1F1F1" height="129.4844" id="Game" rx="2.5" ry="2.5" style="stroke:#181818;stroke-width:0.5;" width="233" x="491.5" y="231"/><ellipse cx="582.75" cy="247" fill="#ADD1B2" rx="11" ry="11" style="stroke:#181818;stroke-width:1.0;"/><path d="M585.0938,242.6719 C584.1563,242.2344 583.5625,242.0938 582.6875,242.0938 C580.0625,242.0938 578.0625,244.1719 578.0625,246.8906 L578.0625,248.0156 C578.0625,250.5938 580.1719,252.4844 583.0625,252.4844 C584.2813,252.4844 585.4375,252.1875 586.1875,251.6406 C586.7656,251.2344 587.0938,250.7813 587.0938,250.3906 C587.0938,249.9375 586.7031,249.5469 586.2344,249.5469 C586.0156,249.5469 585.8125,249.625 585.625,249.8125 C585.1719,250.2969 585.1719,250.2969 584.9844,250.3906 C584.5625,250.6563 583.875,250.7813 583.1094,250.7813 C581.0625,250.7813 579.7656,249.6875 579.7656,247.9844 L579.7656,246.8906 C579.7656,245.1094 581.0156,243.7969 582.75,243.7969 C583.3281,243.7969 583.9375,243.9531 584.4063,244.2031 C584.8906,244.4844 585.0625,244.7031 585.1563,245.1094 C585.2188,245.5156 585.25,245.6406 585.3906,245.7656 C585.5313,245.9063 585.7656,246.0156 585.9844,246.0156 C586.25,246.0156 586.5156,245.875 586.6875,245.6563 C586.7969,245.5 586.8281,245.3125 586.8281,244.8906 L586.8281,243.4688 C586.8281,243.0313 586.8125,242.9063 586.7188,242.75 C586.5625,242.4844 586.2813,242.3438 585.9844,242.3438 C585.6875,242.3438 585.4844,242.4375 585.2656,242.75 L585.0938,242.6719 Z " fill="#000000"/><text fill="#000000" font-family="sans-serif" font-size="14" lengthAdjust="spacing" textLength="42" x="603.25" y="251.8467">Game</text><line style="stroke:#181818;stroke-width:0.5;" x1="492.5" x2="723.5" y1="263" y2="263"/><rect fill="none" height="6" style="stroke:#C82930;stroke-width:1.0;" width="6" x="499.5" y="271"/><text fill="#000000" font-family="sans-serif" font-size="14" lengthAdjust="spacing" textLength="102" x="511.5" y="279.9951">Player player1</text><rect fill="none" height="6" style="stroke:#C82930;stroke-width:1.0;" width="6" x="499.5" y="287.2969"/><text fill="#000000" font-family="sans-serif" font-size="14" lengthAdjust="spacing" textLength="101" x="511.5" y="296.292">Player player2</text><rect fill="none" height="6" style="stroke:#C82930;stroke-width:1.0;" width="6" x="499.5" y="303.5938"/><text fill="#000000" font-family="sans-serif" font-size="14" lengthAdjust="spacing" textLength="147" x="511.5" y="312.5889">PlayBoard playBoard</text><rect fill="none" height="6" style="stroke:#C82930;stroke-width:1.0;" width="6" x="499.5" y="319.8906"/><text fill="#000000" font-family="sans-serif" font-size="14" lengthAdjust="spacing" textLength="184" x="511.5" y="328.8857">AttackBoard attackBoard</text><rect fill="none" height="6" style="stroke:#C82930;stroke-width:1.0;" width="6" x="499.5" y="336.1875"/><text fill="#000000" font-family="sans-serif" font-size="14" lengthAdjust="spacing" textLength="207" x="511.5" y="345.1826">List&lt;Flowerbed&gt; flowerbeds</text><line style="stroke:#181818;stroke-width:0.5;" x1="492.5" x2="723.5" y1="352.4844" y2="352.4844"/></g><!--MD5=[9563755d011c5cec7ec66dc53565a59e]
class Board--><g id="elem_Board"><rect codeLine="17" fill="#F1F1F1" height="113.1875" id="Board" rx="2.5" ry="2.5" style="stroke:#181818;stroke-width:0.5;" width="208" x="223" y="239"/><ellipse cx="301.25" cy="255" fill="#A9DCDF" rx="11" ry="11" style="stroke:#181818;stroke-width:1.0;"/><path d="M303.3281,256.8125 L303.7188,257.7969 L303.3281,257.7969 C302.875,257.7969 302.7656,257.8125 302.6094,257.9219 C302.3594,258.0781 302.2031,258.3594 302.2031,258.6563 C302.2031,258.9219 302.3438,259.1719 302.5625,259.3281 C302.7031,259.4531 302.9063,259.5 303.3281,259.5 L305.6875,259.5 C306.0469,259.5 306.2656,259.4688 306.4063,259.375 C306.6563,259.2344 306.8125,258.9375 306.8125,258.6563 C306.8125,258.375 306.6719,258.125 306.4531,257.9688 C306.2813,257.8281 306.125,257.7969 305.6563,257.7969 L302.2656,249.5938 L298.5938,249.5938 C298.1406,249.5938 298.0156,249.6094 297.8594,249.7031 C297.6094,249.875 297.4531,250.1563 297.4531,250.4375 C297.4531,250.7188 297.5938,250.9688 297.8125,251.1406 C297.9844,251.25 298.1563,251.2813 298.5938,251.2813 L299.6719,251.2813 L297.0313,257.7969 C296.6094,257.7969 296.4531,257.8125 296.2969,257.9219 C296.0469,258.0781 295.8906,258.3594 295.8906,258.6563 C295.8906,259.2188 296.2656,259.5 297.0156,259.5 L299.2813,259.5 C299.6406,259.5 299.8594,259.4688 299.9844,259.375 C300.25,259.2344 300.3906,258.9375 300.3906,258.6563 C300.3906,258.375 300.2656,258.125 300.0469,257.9531 C299.875,257.8281 299.7344,257.7969 299.2813,257.7969 L298.8906,257.7969 L299.2813,256.8125 L303.3281,256.8125 Z M302.625,255.1094 L299.9531,255.1094 L301.2969,251.8438 L302.625,255.1094 Z " fill="#000000"/><text fill="#000000" font-family="sans-serif" font-size="14" font-style="italic" lengthAdjust="spacing" textLength="43" x="321.75" y="259.8467">Board</text><line style="stroke:#181818;stroke-width:0.5;" x1="224" x2="430" y1="271" y2="271"/><rect fill="none" height="6" style="stroke:#C82930;stroke-width:1.0;" width="6" x="231" y="279"/><text fill="#000000" font-family="sans-serif" font-size="14" lengthAdjust="spacing" textLength="62" x="243" y="287.9951">int gridX</text><rect fill="none" height="6" style="stroke:#C82930;stroke-width:1.0;" width="6" x="231" y="295.2969"/><text fill="#000000" font-family="sans-serif" font-size="14" lengthAdjust="spacing" textLength="61" x="243" y="304.292">int gridY</text><rect fill="none" height="6" style="stroke:#C82930;stroke-width:1.0;" width="6" x="231" y="311.5938"/><text fill="#000000" font-family="sans-serif" font-size="14" lengthAdjust="spacing" textLength="155" x="243" y="320.5889">List&lt;Square&gt; squares</text><line style="stroke:#181818;stroke-width:0.5;" x1="224" x2="430" y1="327.8906" y2="327.8906"/><ellipse cx="234" cy="338.8906" fill="#84BE84" rx="3" ry="3" style="stroke:#038048;stroke-width:1.0;"/><text fill="#000000" font-family="sans-serif" font-size="14" lengthAdjust="spacing" textLength="182" x="243" y="344.8857">updateSquares(Board, ID)</text></g><!--MD5=[5655ee3e2a0d028d03fe20f829576392]
class Square--><g id="elem_Square"><rect codeLine="23" fill="#F1F1F1" height="113.1875" id="Square" rx="2.5" ry="2.5" style="stroke:#181818;stroke-width:0.5;" width="107" x="436.5" y="41"/><ellipse cx="463.2" cy="57" fill="#ADD1B2" rx="11" ry="11" style="stroke:#181818;stroke-width:1.0;"/><path d="M465.5438,52.6719 C464.6063,52.2344 464.0125,52.0938 463.1375,52.0938 C460.5125,52.0938 458.5125,54.1719 458.5125,56.8906 L458.5125,58.0156 C458.5125,60.5938 460.6219,62.4844 463.5125,62.4844 C464.7313,62.4844 465.8875,62.1875 466.6375,61.6406 C467.2156,61.2344 467.5438,60.7813 467.5438,60.3906 C467.5438,59.9375 467.1531,59.5469 466.6844,59.5469 C466.4656,59.5469 466.2625,59.625 466.075,59.8125 C465.6219,60.2969 465.6219,60.2969 465.4344,60.3906 C465.0125,60.6563 464.325,60.7813 463.5594,60.7813 C461.5125,60.7813 460.2156,59.6875 460.2156,57.9844 L460.2156,56.8906 C460.2156,55.1094 461.4656,53.7969 463.2,53.7969 C463.7781,53.7969 464.3875,53.9531 464.8563,54.2031 C465.3406,54.4844 465.5125,54.7031 465.6063,55.1094 C465.6688,55.5156 465.7,55.6406 465.8406,55.7656 C465.9813,55.9063 466.2156,56.0156 466.4344,56.0156 C466.7,56.0156 466.9656,55.875 467.1375,55.6563 C467.2469,55.5 467.2781,55.3125 467.2781,54.8906 L467.2781,53.4688 C467.2781,53.0313 467.2625,52.9063 467.1688,52.75 C467.0125,52.4844 466.7313,52.3438 466.4344,52.3438 C466.1375,52.3438 465.9344,52.4375 465.7156,52.75 L465.5438,52.6719 Z " fill="#000000"/><text fill="#000000" font-family="sans-serif" font-size="14" lengthAdjust="spacing" textLength="49" x="479.8" y="61.8467">Square</text><line style="stroke:#181818;stroke-width:0.5;" x1="437.5" x2="542.5" y1="73" y2="73"/><rect fill="none" height="6" style="stroke:#C82930;stroke-width:1.0;" width="6" x="444.5" y="81"/><text fill="#000000" font-family="sans-serif" font-size="14" lengthAdjust="spacing" textLength="39" x="456.5" y="89.9951">int ID</text><rect fill="none" height="6" style="stroke:#C82930;stroke-width:1.0;" width="6" x="444.5" y="97.2969"/><text fill="#000000" font-family="sans-serif" font-size="14" lengthAdjust="spacing" textLength="81" x="456.5" y="106.292">bool flower</text><rect fill="none" height="6" style="stroke:#C82930;stroke-width:1.0;" width="6" x="444.5" y="113.5938"/><text fill="#000000" font-family="sans-serif" font-size="14" lengthAdjust="spacing" textLength="77" x="456.5" y="122.5889">bool found</text><line style="stroke:#181818;stroke-width:0.5;" x1="437.5" x2="542.5" y1="129.8906" y2="129.8906"/><ellipse cx="447.5" cy="140.8906" fill="#84BE84" rx="3" ry="3" style="stroke:#038048;stroke-width:1.0;"/><text fill="#000000" font-family="sans-serif" font-size="14" lengthAdjust="spacing" textLength="66" x="456.5" y="146.8857">bool hit()</text></g><!--MD5=[5c9b534aa5137ac9c29e52d3187cda11]
class SquareListener--><g id="elem_SquareListener"><rect codeLine="29" fill="#F1F1F1" height="64.2969" id="SquareListener" rx="2.5" ry="2.5" style="stroke:#181818;stroke-width:0.5;" width="153" x="248.5" y="65.5"/><ellipse cx="269.35" cy="81.5" fill="#B4A7E5" rx="11" ry="11" style="stroke:#181818;stroke-width:1.0;"/><path d="M270.3031,78.2813 L272.0219,78.2813 C272.4125,78.2813 272.6,78.25 272.725,78.1719 C272.9906,78.0156 273.1313,77.7344 273.1313,77.4375 C273.1313,77.1719 273.0219,76.9063 272.7875,76.7344 C272.6156,76.625 272.475,76.5938 272.0219,76.5938 L266.8813,76.5938 C266.4438,76.5938 266.3188,76.6094 266.1625,76.7031 C265.9125,76.8594 265.7563,77.1563 265.7563,77.4375 C265.7563,77.7188 265.8969,77.9688 266.1156,78.1406 C266.2719,78.25 266.4594,78.2813 266.8813,78.2813 L268.6,78.2813 L268.6,84.7969 L266.8813,84.7969 C266.4438,84.7969 266.3188,84.8125 266.1625,84.9219 C265.9125,85.0781 265.7563,85.3594 265.7563,85.6563 C265.7563,85.9063 265.8969,86.1719 266.1156,86.3281 C266.2719,86.4531 266.475,86.5 266.8813,86.5 L272.0219,86.5 C272.7719,86.5 273.1313,86.2188 273.1313,85.6563 C273.1313,85.375 273.0219,85.125 272.7875,84.9531 C272.6156,84.8281 272.475,84.7969 272.0219,84.7969 L270.3031,84.7969 L270.3031,78.2813 Z " fill="#000000"/><text fill="#000000" font-family="sans-serif" font-size="14" font-style="italic" lengthAdjust="spacing" textLength="108" x="284.65" y="86.3467">SquareListener</text><line style="stroke:#181818;stroke-width:0.5;" x1="249.5" x2="400.5" y1="97.5" y2="97.5"/><line style="stroke:#181818;stroke-width:0.5;" x1="249.5" x2="400.5" y1="105.5" y2="105.5"/><ellipse cx="259.5" cy="116.5" fill="#84BE84" rx="3" ry="3" style="stroke:#038048;stroke-width:1.0;"/><text fill="#000000" font-family="sans-serif" font-size="14" lengthAdjust="spacing" textLength="127" x="268.5" y="122.4951">squaresChanged()</text></g><!--MD5=[abde81b84bc329c80b97f831afc4436d]
class AttackBoard--><g id="elem_AttackBoard"><rect codeLine="32" fill="#F1F1F1" height="64.2969" id="AttackBoard" rx="2.5" ry="2.5" style="stroke:#181818;stroke-width:0.5;" width="224" x="22" y="469.5"/><ellipse cx="84.25" cy="485.5" fill="#ADD1B2" rx="11" ry="11" style="stroke:#181818;stroke-width:1.0;"/><path d="M86.5938,481.1719 C85.6563,480.7344 85.0625,480.5938 84.1875,480.5938 C81.5625,480.5938 79.5625,482.6719 79.5625,485.3906 L79.5625,486.5156 C79.5625,489.0938 81.6719,490.9844 84.5625,490.9844 C85.7813,490.9844 86.9375,490.6875 87.6875,490.1406 C88.2656,489.7344 88.5938,489.2813 88.5938,488.8906 C88.5938,488.4375 88.2031,488.0469 87.7344,488.0469 C87.5156,488.0469 87.3125,488.125 87.125,488.3125 C86.6719,488.7969 86.6719,488.7969 86.4844,488.8906 C86.0625,489.1563 85.375,489.2813 84.6094,489.2813 C82.5625,489.2813 81.2656,488.1875 81.2656,486.4844 L81.2656,485.3906 C81.2656,483.6094 82.5156,482.2969 84.25,482.2969 C84.8281,482.2969 85.4375,482.4531 85.9063,482.7031 C86.3906,482.9844 86.5625,483.2031 86.6563,483.6094 C86.7188,484.0156 86.75,484.1406 86.8906,484.2656 C87.0313,484.4063 87.2656,484.5156 87.4844,484.5156 C87.75,484.5156 88.0156,484.375 88.1875,484.1563 C88.2969,484 88.3281,483.8125 88.3281,483.3906 L88.3281,481.9688 C88.3281,481.5313 88.3125,481.4063 88.2188,481.25 C88.0625,480.9844 87.7813,480.8438 87.4844,480.8438 C87.1875,480.8438 86.9844,480.9375 86.7656,481.25 L86.5938,481.1719 Z " fill="#000000"/><text fill="#000000" font-family="sans-serif" font-size="14" lengthAdjust="spacing" textLength="91" x="104.75" y="490.3467">AttackBoard</text><line style="stroke:#181818;stroke-width:0.5;" x1="23" x2="245" y1="501.5" y2="501.5"/><rect fill="none" height="6" style="stroke:#C82930;stroke-width:1.0;" width="6" x="30" y="509.5"/><text fill="#000000" font-family="sans-serif" font-size="14" lengthAdjust="spacing" textLength="198" x="42" y="518.4951">List&lt;Square&gt; foundSquares</text><line style="stroke:#181818;stroke-width:0.5;" x1="23" x2="245" y1="525.7969" y2="525.7969"/></g><!--MD5=[fa55727a1e5a2c16fa9d3afc5fb03f45]
class PlayBoard--><g id="elem_PlayBoard"><rect codeLine="35" fill="#F1F1F1" height="64.2969" id="PlayBoard" rx="2.5" ry="2.5" style="stroke:#181818;stroke-width:0.5;" width="231" x="281.5" y="469.5"/><ellipse cx="357.25" cy="485.5" fill="#ADD1B2" rx="11" ry="11" style="stroke:#181818;stroke-width:1.0;"/><path d="M359.5938,481.1719 C358.6563,480.7344 358.0625,480.5938 357.1875,480.5938 C354.5625,480.5938 352.5625,482.6719 352.5625,485.3906 L352.5625,486.5156 C352.5625,489.0938 354.6719,490.9844 357.5625,490.9844 C358.7813,490.9844 359.9375,490.6875 360.6875,490.1406 C361.2656,489.7344 361.5938,489.2813 361.5938,488.8906 C361.5938,488.4375 361.2031,488.0469 360.7344,488.0469 C360.5156,488.0469 360.3125,488.125 360.125,488.3125 C359.6719,488.7969 359.6719,488.7969 359.4844,488.8906 C359.0625,489.1563 358.375,489.2813 357.6094,489.2813 C355.5625,489.2813 354.2656,488.1875 354.2656,486.4844 L354.2656,485.3906 C354.2656,483.6094 355.5156,482.2969 357.25,482.2969 C357.8281,482.2969 358.4375,482.4531 358.9063,482.7031 C359.3906,482.9844 359.5625,483.2031 359.6563,483.6094 C359.7188,484.0156 359.75,484.1406 359.8906,484.2656 C360.0313,484.4063 360.2656,484.5156 360.4844,484.5156 C360.75,484.5156 361.0156,484.375 361.1875,484.1563 C361.2969,484 361.3281,483.8125 361.3281,483.3906 L361.3281,481.9688 C361.3281,481.5313 361.3125,481.4063 361.2188,481.25 C361.0625,480.9844 360.7813,480.8438 360.4844,480.8438 C360.1875,480.8438 359.9844,480.9375 359.7656,481.25 L359.5938,481.1719 Z " fill="#000000"/><text fill="#000000" font-family="sans-serif" font-size="14" lengthAdjust="spacing" textLength="71" x="377.75" y="490.3467">PlayBoard</text><line style="stroke:#181818;stroke-width:0.5;" x1="282.5" x2="511.5" y1="501.5" y2="501.5"/><rect fill="none" height="6" style="stroke:#C82930;stroke-width:1.0;" width="6" x="289.5" y="509.5"/><text fill="#000000" font-family="sans-serif" font-size="14" lengthAdjust="spacing" textLength="205" x="301.5" y="518.4951">List&lt;Square&gt; placedSquares</text><line style="stroke:#181818;stroke-width:0.5;" x1="282.5" x2="511.5" y1="525.7969" y2="525.7969"/></g><!--MD5=[826e8dfc0ff535105b9962d97e4d5fa7]
class Flowerbed--><g id="elem_Flowerbed"><rect codeLine="38" fill="#F1F1F1" height="80.5938" id="Flowerbed" rx="2.5" ry="2.5" style="stroke:#181818;stroke-width:0.5;" width="107" x="755.5" y="461"/><ellipse cx="770.5" cy="477" fill="#ADD1B2" rx="11" ry="11" style="stroke:#181818;stroke-width:1.0;"/><path d="M772.8438,472.6719 C771.9063,472.2344 771.3125,472.0938 770.4375,472.0938 C767.8125,472.0938 765.8125,474.1719 765.8125,476.8906 L765.8125,478.0156 C765.8125,480.5938 767.9219,482.4844 770.8125,482.4844 C772.0313,482.4844 773.1875,482.1875 773.9375,481.6406 C774.5156,481.2344 774.8438,480.7813 774.8438,480.3906 C774.8438,479.9375 774.4531,479.5469 773.9844,479.5469 C773.7656,479.5469 773.5625,479.625 773.375,479.8125 C772.9219,480.2969 772.9219,480.2969 772.7344,480.3906 C772.3125,480.6563 771.625,480.7813 770.8594,480.7813 C768.8125,480.7813 767.5156,479.6875 767.5156,477.9844 L767.5156,476.8906 C767.5156,475.1094 768.7656,473.7969 770.5,473.7969 C771.0781,473.7969 771.6875,473.9531 772.1563,474.2031 C772.6406,474.4844 772.8125,474.7031 772.9063,475.1094 C772.9688,475.5156 773,475.6406 773.1406,475.7656 C773.2813,475.9063 773.5156,476.0156 773.7344,476.0156 C774,476.0156 774.2656,475.875 774.4375,475.6563 C774.5469,475.5 774.5781,475.3125 774.5781,474.8906 L774.5781,473.4688 C774.5781,473.0313 774.5625,472.9063 774.4688,472.75 C774.3125,472.4844 774.0313,472.3438 773.7344,472.3438 C773.4375,472.3438 773.2344,472.4375 773.0156,472.75 L772.8438,472.6719 Z " fill="#000000"/><text fill="#000000" font-family="sans-serif" font-size="14" lengthAdjust="spacing" textLength="75" x="784.5" y="481.8467">Flowerbed</text><line style="stroke:#181818;stroke-width:0.5;" x1="756.5" x2="861.5" y1="493" y2="493"/><rect fill="none" height="6" style="stroke:#C82930;stroke-width:1.0;" width="6" x="763.5" y="501"/><text fill="#000000" font-family="sans-serif" font-size="14" lengthAdjust="spacing" textLength="71" x="775.5" y="509.9951">int length</text><rect fill="none" height="6" style="stroke:#C82930;stroke-width:1.0;" width="6" x="763.5" y="517.2969"/><text fill="#000000" font-family="sans-serif" font-size="14" lengthAdjust="spacing" textLength="71" x="775.5" y="526.292">int height</text><line style="stroke:#181818;stroke-width:0.5;" x1="756.5" x2="861.5" y1="533.5938" y2="533.5938"/></g><!--MD5=[92f635b0db170252cfd8a5a2b7bb6b96]
class HighScoreListListener--><g id="elem_HighScoreListListener"><rect codeLine="42" fill="#F1F1F1" height="64.2969" id="HighScoreListListener" rx="2.5" ry="2.5" style="stroke:#181818;stroke-width:0.5;" width="187" x="26.5" y="65.5"/><ellipse cx="41.5" cy="81.5" fill="#B4A7E5" rx="11" ry="11" style="stroke:#181818;stroke-width:1.0;"/><path d="M42.4531,78.2813 L44.1719,78.2813 C44.5625,78.2813 44.75,78.25 44.875,78.1719 C45.1406,78.0156 45.2813,77.7344 45.2813,77.4375 C45.2813,77.1719 45.1719,76.9063 44.9375,76.7344 C44.7656,76.625 44.625,76.5938 44.1719,76.5938 L39.0313,76.5938 C38.5938,76.5938 38.4688,76.6094 38.3125,76.7031 C38.0625,76.8594 37.9063,77.1563 37.9063,77.4375 C37.9063,77.7188 38.0469,77.9688 38.2656,78.1406 C38.4219,78.25 38.6094,78.2813 39.0313,78.2813 L40.75,78.2813 L40.75,84.7969 L39.0313,84.7969 C38.5938,84.7969 38.4688,84.8125 38.3125,84.9219 C38.0625,85.0781 37.9063,85.3594 37.9063,85.6563 C37.9063,85.9063 38.0469,86.1719 38.2656,86.3281 C38.4219,86.4531 38.625,86.5 39.0313,86.5 L44.1719,86.5 C44.9219,86.5 45.2813,86.2188 45.2813,85.6563 C45.2813,85.375 45.1719,85.125 44.9375,84.9531 C44.7656,84.8281 44.625,84.7969 44.1719,84.7969 L42.4531,84.7969 L42.4531,78.2813 Z " fill="#000000"/><text fill="#000000" font-family="sans-serif" font-size="14" font-style="italic" lengthAdjust="spacing" textLength="155" x="55.5" y="86.3467">HighScoreListListener</text><line style="stroke:#181818;stroke-width:0.5;" x1="27.5" x2="212.5" y1="97.5" y2="97.5"/><line style="stroke:#181818;stroke-width:0.5;" x1="27.5" x2="212.5" y1="105.5" y2="105.5"/><ellipse cx="37.5" cy="116.5" fill="#84BE84" rx="3" ry="3" style="stroke:#038048;stroke-width:1.0;"/><text fill="#000000" font-family="sans-serif" font-size="14" lengthAdjust="spacing" textLength="95" x="46.5" y="122.4951">listChanged()</text></g><!--MD5=[200f72c5504f6fe7c2172b94cdb80c19]
class HighScoreList--><g id="elem_HighScoreList"><rect codeLine="45" fill="#F1F1F1" height="64.2969" id="HighScoreList" rx="2.5" ry="2.5" style="stroke:#181818;stroke-width:0.5;" width="132" x="54" y="263.5"/><ellipse cx="69.45" cy="279.5" fill="#ADD1B2" rx="11" ry="11" style="stroke:#181818;stroke-width:1.0;"/><path d="M71.7938,275.1719 C70.8563,274.7344 70.2625,274.5938 69.3875,274.5938 C66.7625,274.5938 64.7625,276.6719 64.7625,279.3906 L64.7625,280.5156 C64.7625,283.0938 66.8719,284.9844 69.7625,284.9844 C70.9813,284.9844 72.1375,284.6875 72.8875,284.1406 C73.4656,283.7344 73.7938,283.2813 73.7938,282.8906 C73.7938,282.4375 73.4031,282.0469 72.9344,282.0469 C72.7156,282.0469 72.5125,282.125 72.325,282.3125 C71.8719,282.7969 71.8719,282.7969 71.6844,282.8906 C71.2625,283.1563 70.575,283.2813 69.8094,283.2813 C67.7625,283.2813 66.4656,282.1875 66.4656,280.4844 L66.4656,279.3906 C66.4656,277.6094 67.7156,276.2969 69.45,276.2969 C70.0281,276.2969 70.6375,276.4531 71.1063,276.7031 C71.5906,276.9844 71.7625,277.2031 71.8563,277.6094 C71.9188,278.0156 71.95,278.1406 72.0906,278.2656 C72.2313,278.4063 72.4656,278.5156 72.6844,278.5156 C72.95,278.5156 73.2156,278.375 73.3875,278.1563 C73.4969,278 73.5281,277.8125 73.5281,277.3906 L73.5281,275.9688 C73.5281,275.5313 73.5125,275.4063 73.4188,275.25 C73.2625,274.9844 72.9813,274.8438 72.6844,274.8438 C72.3875,274.8438 72.1844,274.9375 71.9656,275.25 L71.7938,275.1719 Z " fill="#000000"/><text fill="#000000" font-family="sans-serif" font-size="14" lengthAdjust="spacing" textLength="99" x="83.55" y="284.3467">HighScoreList</text><line style="stroke:#181818;stroke-width:0.5;" x1="55" x2="185" y1="295.5" y2="295.5"/><text fill="#000000" font-family="sans-serif" font-size="14" lengthAdjust="spacing" textLength="120" x="60" y="312.4951">List&lt;int&gt; results</text><line style="stroke:#181818;stroke-width:0.5;" x1="55" x2="185" y1="319.7969" y2="319.7969"/></g><!--MD5=[89d23103982d82d7bd66fb3e5982f1f7]
link HighScoreListListener to HighScoreList--><g id="link_HighScoreListListener_HighScoreList"><path codeLine="50" d="M120,129.557 C120,160.074 120,207.182 120,243.253 " fill="none" id="HighScoreListListener-to-HighScoreList" style="stroke:#181818;stroke-width:1.0;"/><polygon fill="none" points="127,243.265,120,263.265,113,243.265,127,243.265" style="stroke:#181818;stroke-width:1.0;"/><text fill="#000000" font-family="sans-serif" font-size="13" lengthAdjust="spacing" textLength="73" x="121" y="197.0669">impements</text></g><!--MD5=[6b6b9e8ceff4e9e58f06e15491e15318]
link Game to Player--><g id="link_Game_Player"><path codeLine="51" d="M616.12,360.208 C619.234,384.641 622.785,412.504 625.897,436.925 " fill="none" id="Game-Player" style="stroke:#181818;stroke-width:1.0;"/><text fill="#000000" font-family="sans-serif" font-size="13" lengthAdjust="spacing" textLength="8" x="608.5964" y="380.6036">1</text><text fill="#000000" font-family="sans-serif" font-size="13" lengthAdjust="spacing" textLength="8" x="616.5732" y="426.0895">2</text></g><!--MD5=[635596fbb7c4c68b92529379b8a01b3e]
link Game to Flowerbed--><g id="link_Game_Flowerbed"><path codeLine="52" d="M670.771,360.208 C703.254,393.175 741.888,432.386 770.043,460.962 " fill="none" id="Game-Flowerbed" style="stroke:#181818;stroke-width:1.0;"/><text fill="#000000" font-family="sans-serif" font-size="13" lengthAdjust="spacing" textLength="8" x="669.5664" y="380.6036">1</text><text fill="#000000" font-family="sans-serif" font-size="13" lengthAdjust="spacing" textLength="7" x="755.7457" y="449.8187">*</text></g><!--MD5=[cc3be2aec552e9272115408b211732ae]
link Game to AttackBoard--><g id="link_Game_AttackBoard"><path codeLine="53" d="M517.811,360.099 C489.512,377.585 457.43,395.012 426,407 C357.583,433.095 333.536,414.054 264,437 C238.597,445.383 211.831,457.781 189.233,469.402 " fill="none" id="Game-AttackBoard" style="stroke:#181818;stroke-width:1.0;"/><text fill="#000000" font-family="sans-serif" font-size="13" lengthAdjust="spacing" textLength="8" x="498.9204" y="380.482">1</text><text fill="#000000" font-family="sans-serif" font-size="13" lengthAdjust="spacing" textLength="8" x="191.7998" y="458.2849">1</text></g><!--MD5=[115396dd220d476227342bb83394fcf1]
link Game to PlayBoard--><g id="link_Game_PlayBoard"><path codeLine="54" d="M544.651,360.245 C529.157,375.647 512.557,391.99 497,407 C475.277,427.958 450.496,451.133 431.038,469.167 " fill="none" id="Game-PlayBoard" style="stroke:#181818;stroke-width:1.0;"/><text fill="#000000" font-family="sans-serif" font-size="13" lengthAdjust="spacing" textLength="8" x="528.8638" y="380.6449">1</text><text fill="#000000" font-family="sans-serif" font-size="13" lengthAdjust="spacing" textLength="8" x="428.9517" y="458.3756">1</text></g><!--MD5=[eb343a9c3762912a42ec573dd1594320]
link Board to AttackBoard--><g id="link_Board_AttackBoard"><path codeLine="55" d="M274.262,352.244 C243.944,384.29 206.313,424.065 177.665,454.347 " fill="none" id="Board-to-AttackBoard" style="stroke:#181818;stroke-width:1.0;"/><polygon fill="none" points="182.418,459.508,163.588,469.225,172.248,449.886,182.418,459.508" style="stroke:#181818;stroke-width:1.0;"/><text fill="#000000" font-family="sans-serif" font-size="13" lengthAdjust="spacing" textLength="52" x="238" y="403.0669">extends</text></g><!--MD5=[210f2b88b69ac8e778cdefe6651479c3]
link Board to PlayBoard--><g id="link_Board_PlayBoard"><path codeLine="56" d="M346.128,352.244 C356.62,382.82 369.526,420.432 379.713,450.121 " fill="none" id="Board-to-PlayBoard" style="stroke:#181818;stroke-width:1.0;"/><polygon fill="none" points="386.398,448.036,386.268,469.225,373.156,452.58,386.398,448.036" style="stroke:#181818;stroke-width:1.0;"/><text fill="#000000" font-family="sans-serif" font-size="13" lengthAdjust="spacing" textLength="52" x="365" y="403.0669">extends</text></g><!--MD5=[d21c7b53e0d8fcccba7bf2c4ef0544b9]
link SquareListener to Board--><g id="link_SquareListener_Board"><path codeLine="57" d="M325.317,129.557 C325.561,153.439 325.908,187.48 326.224,218.442 " fill="none" id="SquareListener-to-Board" style="stroke:#181818;stroke-width:1.0;"/><polygon fill="none" points="333.226,218.642,326.431,238.712,319.227,218.785,333.226,218.642" style="stroke:#181818;stroke-width:1.0;"/><text fill="#000000" font-family="sans-serif" font-size="13" lengthAdjust="spacing" textLength="76" x="327" y="197.0669">implements</text></g><!--MD5=[df68f3fc006d907310229eb7bfe3bb80]
link Square to Board--><g id="link_Square_Board"><path codeLine="58" d="M448.972,154.249 C437.291,169.611 424.374,186.133 412,201 C401.615,213.477 390.131,226.554 379.052,238.84 " fill="none" id="Square-Board" style="stroke:#181818;stroke-width:1.0;"/><text fill="#000000" font-family="sans-serif" font-size="13" lengthAdjust="spacing" textLength="7" x="436.5452" y="174.1429">*</text><text fill="#000000" font-family="sans-serif" font-size="13" lengthAdjust="spacing" textLength="8" x="376.9083" y="228.0841">1</text></g><!--MD5=[67dd6734968c163d68c33f9a68b33ffe]
@startuml
package "Model" #cfbaf0 {

  class Player{
  - int playerID
  - int points
  - String username
  + Game game
  + setFlowerBed(int ID)
  }
  class Game {
  - Player player1
  - Player player2
  - PlayBoard playBoard
  - AttackBoard attackBoard
  - List<Flowerbed> flowerbeds
  }
  abstract class Board {
  -int gridX
  -int gridY
  - List<Square> squares
  + updateSquares(Board, ID)
  }
  class Square{
  - int ID
  - bool flower 
  - bool found 
  + bool hit()
  }
  interface SquareListener{
  + squaresChanged()
  }
  class AttackBoard {
  -List<Square> foundSquares
  }
  class PlayBoard{
  - List<Square> placedSquares
  }
  class Flowerbed{
  - int length
  - int height
  }
  interface HighScoreListListener{
  + listChanged()
  }
  class HighScoreList{
  List<int> results
}
  

  HighScoreListListener - -|> HighScoreList: impements
  Game "1" - - "2" Player
  Game "1" - - "*" Flowerbed
  Game "1" - - "1" AttackBoard
  Game "1" - - "1" PlayBoard
  Board - -|> AttackBoard: extends
  Board - -|> PlayBoard: extends
  SquareListener - -|> Board: implements
  Square "*" - - "1" Board

}
@enduml

PlantUML version 1.2022.3beta2(Unknown compile time)
(GPL source distribution)
Java Runtime: Java(TM) SE Runtime Environment
JVM: Java HotSpot(TM) 64-Bit Server VM
Default Encoding: UTF-8
Language: en
Country: US
--></g></svg>